# xmcd
#
# Track frame offsets:
#	182
#	10385
#	22082
#	29580
#	40192
#	52252
#	66200
#	76375
#	88915
#	99975
#	113215
#	124820
#	138537
#	150967
#	163087
#	177260
#
# Disc length: 2562 seconds
#
# Revision: 0
# Processed by: cddbd v1.4PL0 Copyright (c) Steve Scherf et al.
# Submitted via: audiograbber 1.81.02
#
DISCID=d90a0010
DTITLE=Various Artist - US STARS ihre erfolge CD 2
DYEAR=1900
DGENRE=Blues
TTITLE0=Marty Wilde - Rubber Ball
TTITLE1=Neil Sedaka - Happy Birthday Sweet Sixteen
TTITLE2=Maurice Williams and The Zodiacs - Stay
TTITLE3=Ricky Nelson - Hello Mary Lou
TTITLE4=Dion - Runanround sue
TTITLE5=Frankie Laine - Cool Water
TTITLE6=Gene Pitney - I´m Gomma Be Strong
TTITLE7=The Platters - My Prayer
TTITLE8=Pat Boone - Johnny Will
TTITLE9=Frank Sinatra - (Love Is) The Tender Trap
TTITLE10=Bobby Darin - Lazy River
TTITLE11=Doris Day - The Black Hills Of Dakota
TTITLE12=Roy Orbison - Blue Bayou
TTITLE13=Sam Cooke - Twistin´The Night Away
TTITLE14=Dean Martin - That´s Amore
TTITLE15=Harry Belafonte - Island in The Sun
EXTD=
EXTT0=
EXTT1=
EXTT2=
EXTT3=
EXTT4=
EXTT5=
EXTT6=
EXTT7=
EXTT8=
EXTT9=
EXTT10=
EXTT11=
EXTT12=
EXTT13=
EXTT14=
EXTT15=
PLAYORDER=
